<?xml version="1.0" standalone="no"?><!DOCTYPE svg PUBLIC "-//W3C//DTD SVG 1.1//EN" "http://www.w3.org/Graphics/SVG/1.1/DTD/svg11.dtd"><svg t="1513172391904" class="icon" style="" viewBox="0 0 1024 1024" version="1.1" xmlns="http://www.w3.org/2000/svg" p-id="3682" xmlns:xlink="http://www.w3.org/1999/xlink" width="200" height="200"><defs><style type="text/css"></style></defs><path d="M49.825 937.837l-13.216-243.242v-539.378l55.525-18.508 314.634-13.216 66.093 108.402s60.812 34.368 68.741 34.368c7.935 0 330.503-15.866 330.503-15.866l37.011 92.542 39.66 68.741-92.537 526.15h-806.415z" fill="#B0E5FF" p-id="3683"></path><path d="M941.836 350.323v-62.467c0-34.467-27.995-62.467-62.467-62.467h-374.779v-62.461c0-34.467-27.995-62.467-62.467-62.467h-374.784c-34.467 0-62.467 27.995-62.467 62.467v749.568c0 1.453 0.672 2.682 0.781 4.009h0.891c2.234 31.791 27.219 58.452 60.905 58.452h774.33c29.78 0 55.548-21.081 61.347-50.305l99.953-499.488c7.69-38.704-21.867-74.733-61.243-74.842zM67.34 593.931v-399.77c0-0.015 0-0.032 0-0.049 0-17.222 13.962-31.184 31.184-31.184 0.017 0 0.034 0 0.052 0h312.32c0.015 0 0.032 0 0.049 0 17.222 0 31.184 13.962 31.184 31.184 0 0.017 0 0.034 0 0.052v62.464c0 0.015 0 0.032 0 0.049 0 17.222 13.962 31.184 31.184 31.184 0.017 0 0.034 0 0.052 0h374.781c0.015 0 0.032 0 0.049 0 17.222 0 31.184 13.962 31.184 31.184 0 0.017 0 0.034 0 0.052v31.231h-711.983c-29.786 0-55.548 21.081-61.347 50.303l-38.71 193.298zM842.113 887.849c-3.119 14.385-15.947 24.647-30.671 24.647h-706.068c-19.743 0-34.467-17.957-30.676-37.366l87.005-437.36c2.935-14.346 15.452-24.982 30.453-24.986h714.544c20.081 0 35.028 18.514 30.785 38.034l-95.372 437.033z" fill="#138BE5" p-id="3684"></path></svg>